{"title":"Tropico 2013 HDRip 1080p x264 AAC - BFAB [P2PDL]","uid":9316435,"size":274895641,"categoryP":"video","categoryS":"movies","magnet":"?xt=urn:btih:93c7e849a99367e7778b38c58c56300760d50957&amp;dn=Tropico+2013+HDRip+1080p+x264+AAC+-+BFAB+%5BP2PDL%5D&amp;tr=udp%3A%2F%2Ftracker.openbittorrent.com%3A80&amp;tr=udp%3A%2F%2Fopen.demonii.com%3A1337&amp;tr=udp%3A%2F%2Ftracker.coppersurfer.tk%3A6969&amp;tr=udp%3A%2F%2Fexodus.desync.com%3A6969","seeders":0,"leechers":0,"uploader":"BFAB","files":9,"time":1386478674,"description":"                                                                                                \n                                                                                                  \n                                                                                                   \nPPPPPPPPPPPPPPPPP   222222222222222   PPPPPPPPPPPPPPPPP  DDDDDDDDDDDDD     LLLLLLLLLLL             \nP::::::::::::::::P 2::::::MAKE!::::22 P:::::::SAVE!::::P D::::SHARE!::DDD  L:::::::::L             \nP::::::PPPPPP:::::P2::::::222222:::::2P::::::PPPPPP:::::PD:::::::::::::::DDL:::::::::L             \nPP:::::P     P:::::2222222     2:::::2PP:::::P     P:::::DDD:::::DDDDD:::::LL:::::::LL             \n  P::::P     P:::::P           2:::::2  P::::P     P:::::P D:::::D    D:::::DL:::::L               \n  P::::P     P:::::P           2:::::2  P::::P     P:::::P D:::::D     D:::::L:::::L               \n  P::::PPPPPP:::::P         2222::::2   P::::PPPPPP:::::P  D:::::D     D:::::L:::::L               \n  P:::::::::::::PP     22222::::::22    P:::::::::::::PP   D:::::D     D:::::L:::::L               \n  P::::PPPPPPPPP     22::::::::222      P::::PPPPPPPPP     D:::::D     D:::::L:::::L               \n  P::::P            2:::::22222         P::::P             D:::::D     D:::::L:::::L               \n  P::::P           2:::::2              P::::P             D:::::D     D:::::L:::::L               \n  P::::P           2:::::2              P::::P             D:::::D    D:::::DL:::::L         LLLLLL\nPP::::::PP         2:::::2       22222PP::::::PP         DDD:::::DDDDD:::::LL:::::::LLLLLLLLL:::::L\nP::::::::P         2::::::2222222:::::P::::::::P         D:::::::::::::::DDL::::::::::::::::::::::L\nP::::::::P         2:::::Vitamin_X::::P::VYTO::P         D::::ViZNU:::DDD  L::::::::::::::::::::::L\nPPPPPPPPP PRiSTiNE 2222222222222222222PPPPPPPPP PRiSTiNE DDDDDDDDDDDDD     LLLLLLLLLLLLLLLLLLLLLLLL\n                                                                                                   \n                                                                                                   \n                                                                                                  \n_______ Visit us at our Semi Public Bittorrent Community ________\n  &lt;a href=&quot;\nhttp://p2pdl.com&quot; rel=&quot;nofollow&quot; target=&quot;_NEW&quot;&gt;\nhttp://p2pdl.com&lt;/a&gt;  _____________________________ &lt;a href=&quot; http://p2pdl.com&quot; rel=&quot;nofollow&quot; target=&quot;_NEW&quot;&gt; http://p2pdl.com&lt;/a&gt;\n\n\n\n\n[b]Lana Del Rey - Tropico 2013 HDRip 1080p x264 AAC - BFAB[/b]\n\n\nGenre: Drama, Shortfilm\nFormat                                   : MPEG-4\nFile size                                : 250 MiB\nDuration                                 : 27mn 13s\nOverall bit rate                         : 1 284 Kbps\n\nVideo\nFormat                                   : AVC\nBit rate                                 : 1 154 Kbps\nWidth                                    : 1 916 pixels\nHeight                                   : 532 pixels\nDisplay aspect ratio                     : 3.602\nFrame rate mode                          : Constant\nFrame rate                               : 23.976 fps\nBit depth                                : 10 bits\nScan type                                : Progressive\nStream size                              : 225 MiB (90%)\nWriting library                          : x264 core 140 r2377 1ca7bb9\n\nAudio\nFormat                                   : AAC\nBit rate mode                            : Variable\nBit rate                                 : 128 Kbps\nChannel(s)                               : 2 channels\nChannel positions                        : Front: L R\nSampling rate                            : 48.0 KHz\nStream size                              : 24.9 MiB (10%)\n\nSource\t\t\t\t\t : 1080p.HDTV.x264-SYS\t\n &lt;a href=&quot;\nhttp://www.ultraimg.com/QJ0U&quot; rel=&quot;nofollow&quot; target=&quot;_NEW&quot;&gt;\nhttp://www.ultraimg.com/QJ0U&lt;/a&gt;\n &lt;a href=&quot;\nhttp://www.ultraimg.com/QJ0a&quot; rel=&quot;nofollow&quot; target=&quot;_NEW&quot;&gt;\nhttp://www.ultraimg.com/QJ0a&lt;/a&gt;\n &lt;a href=&quot;\nhttp://www.ultraimg.com/QJGb&quot; rel=&quot;nofollow&quot; target=&quot;_NEW&quot;&gt;\nhttp://www.ultraimg.com/QJGb&lt;/a&gt;\n &lt;a href=&quot;\nhttp://www.ultraimg.com/QJGj&quot; rel=&quot;nofollow&quot; target=&quot;_NEW&quot;&gt;\nhttp://www.ultraimg.com/QJGj&lt;/a&gt;\n &lt;a href=&quot;\nhttp://www.ultraimg.com/QJG3&quot; rel=&quot;nofollow&quot; target=&quot;_NEW&quot;&gt;\nhttp://www.ultraimg.com/QJG3&lt;/a&gt;\n &lt;a href=&quot;\nhttp://www.ultraimg.com/QJG5&quot; rel=&quot;nofollow&quot; target=&quot;_NEW&quot;&gt;\nhttp://www.ultraimg.com/QJG5&lt;/a&gt;\n\n----------------------------------------------------------------------------------------------------\n\n\nEncoded using revolutionary 10bit encoding, which enables us to provide you more crispier \nand sharper images at small sizes, just make sure you follow our instructions without a fault.\nRecommend to you to use latest version of VLC player. Install K-Lite Codec Pack or shark007 codecs\nin case of any kind of problem in playback (For non-VLC Media Player users). Alternatively, install\nCore AVC codecs, the fastest decoder that there is coupled with Community Center Codec Pack and play\non Windows Media Player Classic. Check sample to be sure.\nEnjoy!\n\nEncoder Notes: Looking For Early Access To Anything You Can Provide DVDScr, R5, DVDR, BluRay, Direct\nAudio, Music Releases and Seedboxes. [b]We require dedicated servers, so as to do more and fast releases of movies.[/b]\nIf You Got anything to offer contact us at &quot;&lt;a class=&quot;__cf_email__&quot; href=&quot;/cdn-cgi/l/email-protection&quot; data-cfemail=&quot;4a3a382d0a223f392264292527&quot;&gt;[email&amp;#160;protected]&lt;/a&gt;&lt;script data-cfhash='f9e31' type=&quot;text/javascript&quot;&gt;\n/* &lt;![CDATA[ */!function(){try{var t=&quot;currentScript&quot;in document?document.currentScript:function(){for(var t=document.getElementsByTagName(&quot;script&quot;),e=t.length;e--;)if(t[e].getAttribute(&quot;data-cfhash&quot;))return t[e]}();if(t&amp;&amp;t.previousSibling){var e,r,n,i,c=t.previousSibling,a=c.getAttribute(&quot;data-cfemail&quot;);if(a){for(e=&quot;&quot;,r=parseInt(a.substr(0,2),16),n=2;a.length-n;n+=2)i=parseInt(a.substr(n,2),16)^r,e+=String.fromCharCode(i);e=document.createTextNode(e),c.parentNode.replaceChild(e,c)}t.parentNode.removeChild(t);}}catch(u){}}()/* ]]&gt; */&lt;/script&gt;&quot;.[/quote]\n\n\n","torrent":{"xt":"urn:btih:93c7e849a99367e7778b38c58c56300760d50957","amp;dn":"Tropico+2013+HDRip+1080p+x264+AAC+-+BFAB+%5BP2PDL%5D","amp;tr":["udp%3A%2F%2Ftracker.openbittorrent.com%3A80","udp%3A%2F%2Fopen.demonii.com%3A1337","udp%3A%2F%2Ftracker.coppersurfer.tk%3A6969","udp%3A%2F%2Fexodus.desync.com%3A6969"],"infoHash":"93c7e849a99367e7778b38c58c56300760d50957","infoHashBuffer":{"type":"Buffer","data":[147,199,232,73,169,147,103,231,119,139,56,197,140,86,48,7,96,213,9,87]},"announce":[],"urlList":[]}}